<svg width="30" height="30" viewBox="0 0 30 30" fill="none" xmlns="http://www.w3.org/2000/svg">
<g clip-path="url(#clip0_7_224)">
<path fill-rule="evenodd" clip-rule="evenodd" d="M23.3721 2.09302C23.0945 2.09302 22.8284 1.98277 22.6321 1.78651C22.4358 1.59025 22.3256 1.32406 22.3256 1.04651C22.3256 0.768959 22.4358 0.502775 22.6321 0.306516C22.8284 0.110257 23.0945 0 23.3721 0H27.5581C28.9074 0 30 1.09256 30 2.44186V6.62791C30 6.90546 29.8897 7.17164 29.6935 7.3679C29.4972 7.56416 29.231 7.67442 28.9535 7.67442C28.6759 7.67442 28.4097 7.56416 28.2135 7.3679C28.0172 7.17164 27.907 6.90546 27.907 6.62791V2.44186C27.907 2.34934 27.8702 2.26061 27.8048 2.1952C27.7394 2.12978 27.6507 2.09302 27.5581 2.09302H23.3721ZM23.3721 30C23.0945 30 22.8284 29.8897 22.6321 29.6935C22.4358 29.4972 22.3256 29.231 22.3256 28.9535C22.3256 28.6759 22.4358 28.4097 22.6321 28.2135C22.8284 28.0172 23.0945 27.907 23.3721 27.907H27.5581C27.6507 27.907 27.7394 27.8702 27.8048 27.8048C27.8702 27.7394 27.907 27.6507 27.907 27.5581V23.3721C27.907 23.0945 28.0172 22.8284 28.2135 22.6321C28.4097 22.4358 28.6759 22.3256 28.9535 22.3256C29.231 22.3256 29.4972 22.4358 29.6935 22.6321C29.8897 22.8284 30 23.0945 30 23.3721V27.5581C30 28.2058 29.7427 28.8269 29.2848 29.2848C28.8269 29.7427 28.2058 30 27.5581 30H23.3721ZM6.62791 0C6.90546 0 7.17164 0.110257 7.3679 0.306516C7.56416 0.502775 7.67442 0.768959 7.67442 1.04651C7.67442 1.32406 7.56416 1.59025 7.3679 1.78651C7.17164 1.98277 6.90546 2.09302 6.62791 2.09302H2.44186C2.34934 2.09302 2.26061 2.12978 2.1952 2.1952C2.12978 2.26061 2.09302 2.34934 2.09302 2.44186V6.62791C2.09302 6.90546 1.98277 7.17164 1.78651 7.3679C1.59025 7.56416 1.32406 7.67442 1.04651 7.67442C0.768959 7.67442 0.502775 7.56416 0.306516 7.3679C0.110257 7.17164 0 6.90546 0 6.62791V2.44186C0 1.09256 1.09256 0 2.44186 0H6.62791ZM6.62791 27.907C6.90546 27.907 7.17164 28.0172 7.3679 28.2135C7.56416 28.4097 7.67442 28.6759 7.67442 28.9535C7.67442 29.231 7.56416 29.4972 7.3679 29.6935C7.17164 29.8897 6.90546 30 6.62791 30H2.44186C1.79424 30 1.17314 29.7427 0.715204 29.2848C0.257267 28.8269 0 28.2058 0 27.5581V23.3721C0 23.0945 0.110257 22.8284 0.306516 22.6321C0.502775 22.4358 0.768959 22.3256 1.04651 22.3256C1.32406 22.3256 1.59025 22.4358 1.78651 22.6321C1.98277 22.8284 2.09302 23.0945 2.09302 23.3721V27.5581C2.09302 27.7507 2.2493 27.907 2.44186 27.907H6.62791ZM15.84 3.10465L25.4121 8.36233C25.5765 8.45256 25.7137 8.58531 25.8092 8.74671C25.9047 8.90811 25.9551 9.09222 25.9551 9.27977C25.9551 9.46732 25.9047 9.65142 25.8092 9.81282C25.7137 9.97422 25.5765 10.107 25.4121 10.1972L15.5037 15.6405C15.3494 15.7252 15.1761 15.7697 15 15.7697C14.8239 15.7697 14.6506 15.7252 14.4963 15.6405L4.58791 10.1972C4.42349 10.107 4.28634 9.97422 4.1908 9.81282C4.09527 9.65142 4.04487 9.46732 4.04487 9.27977C4.04487 9.09222 4.09527 8.90811 4.1908 8.74671C4.28634 8.58531 4.42349 8.45256 4.58791 8.36233L14.16 3.10465C14.4174 2.96321 14.7063 2.88905 15 2.88905C15.2937 2.88905 15.5826 2.96321 15.84 3.10465ZM15 5.03163L7.26558 9.28047L15 13.5293L22.7344 9.28047L15 5.03163ZM25.4121 19.6647C25.6463 19.8029 25.8176 20.0269 25.8895 20.2892C25.9614 20.5515 25.9284 20.8315 25.7974 21.0699C25.6664 21.3083 25.4478 21.4863 25.1878 21.5662C24.9278 21.6462 24.6469 21.6217 24.4046 21.4981L17.287 17.5884C17.0438 17.4548 16.8637 17.2301 16.7863 16.9637C16.7088 16.6973 16.7404 16.411 16.874 16.1679C17.0075 15.9248 17.2323 15.7447 17.4986 15.6672C17.765 15.5898 18.0513 15.6213 18.2944 15.7549L25.4121 19.6647ZM11.7056 15.7549C11.9487 15.6213 12.235 15.5898 12.5014 15.6672C12.7677 15.7447 12.9925 15.9248 13.126 16.1679C13.2596 16.411 13.2912 16.6973 13.2137 16.9637C13.1363 17.2301 12.9562 17.4548 12.713 17.5884L5.59535 21.4981C5.47466 21.5694 5.3409 21.6156 5.202 21.6342C5.0631 21.6527 4.92189 21.6432 4.78674 21.6061C4.6516 21.5691 4.52527 21.5052 4.41526 21.4184C4.30524 21.3316 4.21378 21.2236 4.1463 21.1008C4.07882 20.978 4.03669 20.8429 4.02241 20.7035C4.00813 20.5641 4.022 20.4232 4.06318 20.2893C4.10437 20.1553 4.17204 20.031 4.26218 19.9237C4.35231 19.8164 4.46308 19.7283 4.58791 19.6647L11.7056 15.7549Z" fill="#976E42"/>
<path fill-rule="evenodd" clip-rule="evenodd" d="M15 24.8435L23.8984 19.9448V9.19237C23.8984 8.91301 24.0091 8.64509 24.2061 8.44755C24.4032 8.25002 24.6705 8.13904 24.9492 8.13904C25.2279 8.13904 25.4952 8.25002 25.6922 8.44755C25.8893 8.64509 26 8.91301 26 9.19237V20.5669C26.0001 20.7558 25.9496 20.9412 25.8537 21.1038C25.7579 21.2664 25.6201 21.4002 25.455 21.4911L15.8435 26.783C15.585 26.9254 15.2949 27 15 27C14.7051 27 14.415 26.9254 14.1565 26.783L4.54503 21.4911C4.37987 21.4002 4.24214 21.2664 4.14625 21.1038C4.05036 20.9412 3.99985 20.7558 4 20.5669V9.05333C4 8.77397 4.11071 8.50605 4.30778 8.30851C4.50485 8.11098 4.77213 8 5.05082 8C5.32952 8 5.5968 8.11098 5.79386 8.30851C5.99093 8.50605 6.10164 8.77397 6.10164 9.05333V19.9448L15 24.8435Z" fill="#976E42"/>
<path fill-rule="evenodd" clip-rule="evenodd" d="M14 14.9819C14 14.7215 14.1054 14.4717 14.2929 14.2876C14.4804 14.1034 14.7348 14 15 14C15.2652 14 15.5196 14.1034 15.7071 14.2876C15.8946 14.4717 16 14.7215 16 14.9819V25.0181C16 25.2785 15.8946 25.5283 15.7071 25.7124C15.5196 25.8966 15.2652 26 15 26C14.7348 26 14.4804 25.8966 14.2929 25.7124C14.1054 25.5283 14 25.2785 14 25.0181V14.9819Z" fill="#976E42"/>
</g>
<defs>
<clipPath id="clip0_7_224">
<rect width="30" height="30" fill="white"/>
</clipPath>
</defs>
</svg>
