<svg width="24" height="24" viewBox="0 0 24 24" fill="none" xmlns="http://www.w3.org/2000/svg">
<path d="M6.5 3H5.5C5.22386 3 5 3.22386 5 3.5V4.5C5 4.77614 5.22386 5 5.5 5H6.5C6.77614 5 7 4.77614 7 4.5V3.5C7 3.22386 6.77614 3 6.5 3Z" fill="#888888"/>
<path d="M10.5 3H9.5C9.22386 3 9 3.22386 9 3.5V4.5C9 4.77614 9.22386 5 9.5 5H10.5C10.7761 5 11 4.77614 11 4.5V3.5C11 3.22386 10.7761 3 10.5 3Z" fill="#888888"/>
<path d="M14.5 3H13.5C13.2239 3 13 3.22386 13 3.5V4.5C13 4.77614 13.2239 5 13.5 5H14.5C14.7761 5 15 4.77614 15 4.5V3.5C15 3.22386 14.7761 3 14.5 3Z" fill="#888888"/>
<path d="M18.5 3H17.5C17.2239 3 17 3.22386 17 3.5V4.5C17 4.77614 17.2239 5 17.5 5H18.5C18.7761 5 19 4.77614 19 4.5V3.5C19 3.22386 18.7761 3 18.5 3Z" fill="#888888"/>
<path d="M19 5H5C4.44772 5 4 5.44772 4 6V18C4 18.5523 4.44772 19 5 19H19C19.5523 19 20 18.5523 20 18V6C20 5.44772 19.5523 5 19 5Z" fill="#888888"/>
<path d="M8 5H7V19H8V5Z" fill="white"/>
<path d="M12 5H11V19H12V5Z" fill="white"/>
<path d="M16 5H15V19H16V5Z" fill="white"/>
<path d="M6.5 19H5.5C5.22386 19 5 19.2239 5 19.5V20.5C5 20.7761 5.22386 21 5.5 21H6.5C6.77614 21 7 20.7761 7 20.5V19.5C7 19.2239 6.77614 19 6.5 19Z" fill="#888888"/>
<path d="M10.5 19H9.5C9.22386 19 9 19.2239 9 19.5V20.5C9 20.7761 9.22386 21 9.5 21H10.5C10.7761 21 11 20.7761 11 20.5V19.5C11 19.2239 10.7761 19 10.5 19Z" fill="#888888"/>
<path d="M14.5 19H13.5C13.2239 19 13 19.2239 13 19.5V20.5C13 20.7761 13.2239 21 13.5 21H14.5C14.7761 21 15 20.7761 15 20.5V19.5C15 19.2239 14.7761 19 14.5 19Z" fill="#888888"/>
<path d="M18.5 19H17.5C17.2239 19 17 19.2239 17 19.5V20.5C17 20.7761 17.2239 21 17.5 21H18.5C18.7761 21 19 20.7761 19 20.5V19.5C19 19.2239 18.7761 19 18.5 19Z" fill="#888888"/>
</svg>
